<?xml version="1.0" encoding="UTF-8"?>
<svg xmlns="http://www.w3.org/2000/svg" viewBox="0 0 64 64" width="64" height="64">
  <!-- Brand rounded square -->
  <rect width="64" height="64" rx="12" fill="#0ea5a4"/>

  <!-- Stylized plane (white) centered -->
  <g transform="translate(8,8) scale(0.75)" fill="#ffffff">
    <!-- Plane body and wings -->
    <path d="M28 6c-1 0-2 .8-2 1.8v8.4L8.6 22.9a2 2 0 0 0-1.1 2.3l2.3 8.2c.3 1 1.4 1.5 2.4 1.1l7.9-3.1v6.2c0 1 1 1.9 2 1.9h2.6c1 0 1.9-.9 1.9-1.9V39l6.4-2.6c1-.4 1.6-1.5 1.3-2.5l-2.9-9.6c-.3-1-.9-1.7-1.8-2.1L34 19.8V8.8C34 7 29.7 6 28 6z"/>
    <!-- small tail fin -->
    <path d="M40 10l6-3-2 6z" opacity="0.0"/>
  </g>
</svg>
